<?xml version="1.0" encoding="iso-8859-1"?>
<!-- Generator: Adobe Illustrator 17.0.0, SVG Export Plug-In . SVG Version: 6.00 Build 0)  -->
<!DOCTYPE svg PUBLIC "-//W3C//DTD SVG 1.1//EN" "http://www.w3.org/Graphics/SVG/1.1/DTD/svg11.dtd">
<svg version="1.1" id="Calque_1" xmlns="http://www.w3.org/2000/svg" xmlns:xlink="http://www.w3.org/1999/xlink" x="0px" y="0px"
	 width="2048px" height="2048px" viewBox="0 0 2048 2048" style="enable-background:new 0 0 2048 2048;" xml:space="preserve">
<path style="fill:#FFC409;" d="M2047,239.79v1569.58c-4,129.9-108.73,234.63-238.63,239.63H238.79C105.8,2044-1,1934.26-1,1800.08
	v-1551C-1,111.79,110.79,1,248.08,1h1551C1933.26,1,2043,106.8,2047,239.79z"/>
<path style="fill:#FFC409;stroke:#000000;stroke-miterlimit:10;" d="M257.37,2048.5c-3.08,0.11-6.18,0.17-9.29,0.17
	c-3.11,0-6.21-0.06-9.29-0.17H257.37z"/>
<path style="fill:#FFC409;stroke:#000000;stroke-miterlimit:10;" d="M1808.37,2048.5c-3.08,0.11-6.18,0.17-9.29,0.17
	c-3.11,0-6.21-0.06-9.29-0.17H1808.37z"/>
<path style="fill:#FFC409;stroke:#000000;stroke-miterlimit:10;" d="M2047.67,1800.08c0,3.11-0.06,6.21-0.17,9.29v-18.58
	C2047.61,1793.87,2047.67,1796.97,2047.67,1800.08z"/>
<path style="fill:#FFC409;stroke:#000000;stroke-miterlimit:10;" d="M2047.67,249.08c0,3.11-0.06,6.21-0.17,9.29v-18.58
	C2047.61,242.87,2047.67,245.97,2047.67,249.08z"/>
<rect x="-501" y="407.667" style="fill:none;" width="426.667" height="393.333"/>
<text transform="matrix(1 0 0 1 -501 789.186)" style="fill:#222428; font-family:'Stencil'; font-size:572;">K</text>
<g>
	<path style="fill:#222428;" d="M905.344,1679.024H473.857h-25.154c-23.219,0-41.117-4.354-53.694-13.061
		s-18.865-21.118-18.865-37.247c0-26.439,12.895-43.854,38.698-52.243c21.284-7.09,33.695-11.444,37.247-13.061
		c3.537-1.6,7.256-5.321,11.126-11.126c7.74-10.307,11.61-26.754,11.61-49.34V534.518c0-22.57-3.87-39.016-11.61-49.341
		c-3.87-5.805-7.589-9.509-11.126-11.126c-3.552-1.602-15.963-5.955-37.247-13.061c-25.803-8.374-38.698-25.788-38.698-52.243
		c0-16.114,6.288-28.54,18.865-37.247c12.577-8.707,30.475-13.061,53.694-13.061h25.154h431.487h25.154
		c23.219,0,41.117,4.354,53.694,13.061c12.577,8.707,18.865,21.134,18.865,37.247c0,26.455-12.91,43.869-38.698,52.243
		c-21.284,7.105-33.711,11.459-37.247,13.061c-3.552,1.617-7.256,5.321-11.126,11.126c-7.74,10.324-11.61,26.771-11.61,49.341
		v968.428c0,36.131,9.341,57.415,28.056,63.852l29.991,9.675c24.505,7.74,36.763,25.154,36.763,52.243
		c0,33.543-22.901,50.308-68.69,50.308H905.344z M1288.46,741.555l292.173,764.294c7.74,20.652,15.797,36.28,24.187,46.922
		c8.372,10.642,19.349,18.865,32.894,24.67c13.544,6.454,22.252,11.292,26.121,14.512c9.025,9.042,13.544,20.966,13.544,35.796
		c0,34.196-24.187,51.275-72.56,51.275h-486.633c-23.219,0-41.117-4.837-53.694-14.512c-12.577-9.675-18.865-23.537-18.865-41.601
		c0-20.635,11.927-36.764,35.796-48.373c14.83-7.09,24.819-13.061,29.991-17.898c5.155-4.837,8.058-11.444,8.707-19.833
		c0-4.502-2.584-14.83-7.74-30.959l-123.837-369.57c-11.61-34.179-17.414-63.203-17.414-87.072c0-22.57,9.341-47.072,28.056-73.527
		l231.225-326.034c21.917-30.309,32.894-61.917,32.894-94.811c0-18.049-4.837-34.829-14.512-50.308
		c-9.675-15.479-22.587-26.439-38.698-32.894l-34.828-14.512c-21.934-9.025-32.894-24.187-32.894-45.471
		c0-17.414,6.772-31.593,20.317-42.568c9.025-7.09,23.852-10.642,44.503-10.642h344.416c22.57,0,40.15,5.003,52.727,14.996
		c12.577,10.008,18.865,24.036,18.865,42.085c0,27.089-14.847,46.438-44.503,58.048l-51.275,20.317
		c-21.284,7.74-48.373,25.154-81.267,52.243c-24.521,20.65-54.827,55.145-90.941,103.518L1288.46,741.555z"/>
</g>
</svg>
