<?xml version="1.0" encoding="iso-8859-1"?>
<!-- Generator: Adobe Illustrator 17.0.0, SVG Export Plug-In . SVG Version: 6.00 Build 0)  -->
<!DOCTYPE svg PUBLIC "-//W3C//DTD SVG 1.1//EN" "http://www.w3.org/Graphics/SVG/1.1/DTD/svg11.dtd">
<svg version="1.1" id="Calque_1" xmlns="http://www.w3.org/2000/svg" xmlns:xlink="http://www.w3.org/1999/xlink" x="0px" y="0px"
	 width="2048px" height="2048px" viewBox="0 0 2048 2048" style="enable-background:new 0 0 2048 2048;" xml:space="preserve">
<path style="fill:#E5E5E5;stroke:#FFFFFF;stroke-miterlimit:10;" d="M1050.164,588.677L805.479,833.362
	c-61.745,54.986-155.213,54.986-216.958,0L343.836,588.677c-57.099-64.12-54.906-162.448,6.585-223.939L581.54,133.619
	c63.767-63.767,167.153-63.767,230.921,0l231.118,231.118C1105.07,426.229,1107.263,524.558,1050.164,588.677z"/>
<path style="fill:#E5E5E5;stroke:#FFFFFF;stroke-miterlimit:10;" d="M998.55,1717.794l-208.925,208.925
	c-52.721,46.95-132.53,46.95-185.251,0L395.45,1717.794c-48.754-54.749-46.882-138.707,5.623-191.212l197.341-197.341
	c54.448-54.448,142.724-54.448,197.172,0l197.341,197.341C1045.432,1579.088,1047.305,1663.046,998.55,1717.794z"/>
<path style="fill:#E5E5E5;stroke:#FFFFFF;stroke-miterlimit:10;" d="M1690.401,1232.599L1369.34,1553.66
	c-81.018,72.149-203.662,72.149-284.68,0L763.6,1232.599c-74.922-84.134-72.045-213.154,8.641-293.84L1075.5,635.5
	c83.672-83.672,219.328-83.672,303,0l303.26,303.26C1762.445,1019.445,1765.322,1148.466,1690.401,1232.599z"/>
</svg>
